<mxfile host="app.diagrams.net" agent="Mozilla/5.0 (Windows NT 10.0; Win64; x64) AppleWebKit/537.36 (KHTML, like Gecko) Chrome/133.0.0.0 Safari/537.36 Edg/133.0.0.0" version="26.0.11">
  <diagram name="Page-1" id="FUj5JuBEpWsL8a2AdBEq">
    <mxGraphModel dx="1234" dy="1156" grid="1" gridSize="10" guides="1" tooltips="1" connect="1" arrows="1" fold="1" page="1" pageScale="1" pageWidth="850" pageHeight="1100" math="0" shadow="0">
      <root>
        <mxCell id="0" />
        <mxCell id="1" parent="0" />
        <mxCell id="6EVmLK6l6n9z2KSdd183-135" value="เริ่มต้น" style="whiteSpace=wrap;strokeWidth=2;fillColor=none;" parent="1" vertex="1">
          <mxGeometry x="1228.5" y="215" width="101" height="49" as="geometry" />
        </mxCell>
        <mxCell id="6EVmLK6l6n9z2KSdd183-148" value="สิ้นสุด" style="whiteSpace=wrap;strokeWidth=2;fillColor=none;" parent="1" vertex="1">
          <mxGeometry x="1229.5" y="880" width="99" height="50" as="geometry" />
        </mxCell>
        <mxCell id="6EVmLK6l6n9z2KSdd183-149" value="" style="curved=1;startArrow=none;endArrow=block;exitX=0.5;exitY=1;entryX=0.5;entryY=0;rounded=0;entryDx=0;entryDy=0;exitDx=0;exitDy=0;" parent="1" source="6EVmLK6l6n9z2KSdd183-135" target="6EVmLK6l6n9z2KSdd183-172" edge="1">
          <mxGeometry relative="1" as="geometry">
            <Array as="points" />
            <mxPoint x="1279" y="154" as="targetPoint" />
          </mxGeometry>
        </mxCell>
        <mxCell id="6EVmLK6l6n9z2KSdd183-172" value="รองรับ NDEF" style="rhombus;strokeWidth=2;whiteSpace=wrap;fontStyle=0;fillColor=none;" parent="1" vertex="1">
          <mxGeometry x="1228.5" y="304" width="101" height="101" as="geometry" />
        </mxCell>
        <mxCell id="6EVmLK6l6n9z2KSdd183-189" value="" style="ellipse;whiteSpace=wrap;html=1;aspect=fixed;fillColor=none;" parent="1" vertex="1">
          <mxGeometry x="1269" y="830" width="20" height="20" as="geometry" />
        </mxCell>
        <mxCell id="6EVmLK6l6n9z2KSdd183-191" value="" style="endArrow=classic;html=1;rounded=0;entryX=0.5;entryY=0;entryDx=0;entryDy=0;exitX=0.5;exitY=1;exitDx=0;exitDy=0;" parent="1" source="6EVmLK6l6n9z2KSdd183-189" target="6EVmLK6l6n9z2KSdd183-148" edge="1">
          <mxGeometry width="50" height="50" relative="1" as="geometry">
            <mxPoint x="1219" y="844" as="sourcePoint" />
            <mxPoint x="1269" y="794" as="targetPoint" />
          </mxGeometry>
        </mxCell>
        <mxCell id="6EVmLK6l6n9z2KSdd183-223" value="" style="curved=1;startArrow=none;endArrow=block;exitX=0.5;exitY=1;entryX=0.5;entryY=0;rounded=0;entryDx=0;entryDy=0;exitDx=0;exitDy=0;" parent="1" source="6EVmLK6l6n9z2KSdd183-172" target="6EVmLK6l6n9z2KSdd183-222" edge="1">
          <mxGeometry relative="1" as="geometry">
            <Array as="points" />
            <mxPoint x="1279" y="405" as="sourcePoint" />
            <mxPoint x="1279" y="457" as="targetPoint" />
          </mxGeometry>
        </mxCell>
        <mxCell id="6EVmLK6l6n9z2KSdd183-224" value="ใช่" style="edgeLabel;html=1;align=center;verticalAlign=middle;resizable=0;points=[];" parent="6EVmLK6l6n9z2KSdd183-223" vertex="1" connectable="0">
          <mxGeometry x="-0.1882" relative="1" as="geometry">
            <mxPoint as="offset" />
          </mxGeometry>
        </mxCell>
        <mxCell id="6EVmLK6l6n9z2KSdd183-222" value="มีข้อมูล" style="rhombus;strokeWidth=2;whiteSpace=wrap;fontStyle=0;fillColor=none;" parent="1" vertex="1">
          <mxGeometry x="1228" y="449" width="101" height="101" as="geometry" />
        </mxCell>
        <mxCell id="6EVmLK6l6n9z2KSdd183-225" value="" style="curved=1;startArrow=none;endArrow=block;exitX=0.5;exitY=1;entryX=0.5;entryY=0;rounded=0;entryDx=0;entryDy=0;exitDx=0;exitDy=0;" parent="1" source="6EVmLK6l6n9z2KSdd183-222" target="6EVmLK6l6n9z2KSdd183-227" edge="1">
          <mxGeometry relative="1" as="geometry">
            <Array as="points" />
            <mxPoint x="1279.5" y="550" as="sourcePoint" />
            <mxPoint x="1278.5" y="594" as="targetPoint" />
          </mxGeometry>
        </mxCell>
        <mxCell id="6EVmLK6l6n9z2KSdd183-226" value="ใช่" style="edgeLabel;html=1;align=center;verticalAlign=middle;resizable=0;points=[];" parent="6EVmLK6l6n9z2KSdd183-225" vertex="1" connectable="0">
          <mxGeometry x="-0.1882" relative="1" as="geometry">
            <mxPoint as="offset" />
          </mxGeometry>
        </mxCell>
        <mxCell id="6EVmLK6l6n9z2KSdd183-227" value="ข้อมูลการ์ด&#xa;ใช้งานได้" style="rhombus;strokeWidth=2;whiteSpace=wrap;fontStyle=0;fillColor=none;" parent="1" vertex="1">
          <mxGeometry x="1228.5" y="598" width="101" height="101" as="geometry" />
        </mxCell>
        <mxCell id="6EVmLK6l6n9z2KSdd183-228" value="ส่งข้อมูลที่อ่าน" style="whiteSpace=wrap;strokeWidth=2;fillColor=none;" parent="1" vertex="1">
          <mxGeometry x="1229.5" y="747" width="99" height="50" as="geometry" />
        </mxCell>
        <mxCell id="6EVmLK6l6n9z2KSdd183-229" value="" style="endArrow=classic;html=1;rounded=0;entryX=0.5;entryY=0;entryDx=0;entryDy=0;exitX=0.5;exitY=1;exitDx=0;exitDy=0;" parent="1" source="6EVmLK6l6n9z2KSdd183-228" target="6EVmLK6l6n9z2KSdd183-189" edge="1">
          <mxGeometry width="50" height="50" relative="1" as="geometry">
            <mxPoint x="1200" y="770" as="sourcePoint" />
            <mxPoint x="1250" y="720" as="targetPoint" />
          </mxGeometry>
        </mxCell>
        <mxCell id="6EVmLK6l6n9z2KSdd183-230" value="" style="curved=1;startArrow=none;endArrow=block;exitX=0.5;exitY=1;entryX=0.5;entryY=0;rounded=0;entryDx=0;entryDy=0;exitDx=0;exitDy=0;" parent="1" source="6EVmLK6l6n9z2KSdd183-227" target="6EVmLK6l6n9z2KSdd183-228" edge="1">
          <mxGeometry relative="1" as="geometry">
            <Array as="points" />
            <mxPoint x="1278.8" y="699" as="sourcePoint" />
            <mxPoint x="1278.8" y="747" as="targetPoint" />
          </mxGeometry>
        </mxCell>
        <mxCell id="6EVmLK6l6n9z2KSdd183-231" value="ใช่" style="edgeLabel;html=1;align=center;verticalAlign=middle;resizable=0;points=[];" parent="6EVmLK6l6n9z2KSdd183-230" vertex="1" connectable="0">
          <mxGeometry x="-0.1882" relative="1" as="geometry">
            <mxPoint as="offset" />
          </mxGeometry>
        </mxCell>
        <mxCell id="6EVmLK6l6n9z2KSdd183-246" value="" style="ellipse;whiteSpace=wrap;html=1;aspect=fixed;fillColor=none;" parent="1" vertex="1">
          <mxGeometry x="1140.5" y="489.5" width="20" height="20" as="geometry" />
        </mxCell>
        <mxCell id="6EVmLK6l6n9z2KSdd183-247" value="" style="endArrow=classic;html=1;rounded=0;exitX=0;exitY=0.5;exitDx=0;exitDy=0;entryX=1;entryY=0.5;entryDx=0;entryDy=0;" parent="1" source="6EVmLK6l6n9z2KSdd183-222" target="6EVmLK6l6n9z2KSdd183-246" edge="1">
          <mxGeometry width="50" height="50" relative="1" as="geometry">
            <mxPoint x="1220" y="600" as="sourcePoint" />
            <mxPoint x="1270" y="550" as="targetPoint" />
          </mxGeometry>
        </mxCell>
        <mxCell id="6EVmLK6l6n9z2KSdd183-248" value="ไม่" style="edgeLabel;html=1;align=center;verticalAlign=middle;resizable=0;points=[];" parent="6EVmLK6l6n9z2KSdd183-247" vertex="1" connectable="0">
          <mxGeometry x="-0.015" relative="1" as="geometry">
            <mxPoint x="5" as="offset" />
          </mxGeometry>
        </mxCell>
        <mxCell id="6EVmLK6l6n9z2KSdd183-250" value="" style="endArrow=classic;html=1;rounded=0;exitX=0;exitY=0.5;exitDx=0;exitDy=0;entryX=0.5;entryY=0;entryDx=0;entryDy=0;edgeStyle=orthogonalEdgeStyle;" parent="1" source="6EVmLK6l6n9z2KSdd183-172" target="6EVmLK6l6n9z2KSdd183-246" edge="1">
          <mxGeometry width="50" height="50" relative="1" as="geometry">
            <mxPoint x="1229.5" y="354" as="sourcePoint" />
            <mxPoint x="1160.5" y="354.5" as="targetPoint" />
          </mxGeometry>
        </mxCell>
        <mxCell id="6EVmLK6l6n9z2KSdd183-251" value="ไม่" style="edgeLabel;html=1;align=center;verticalAlign=middle;resizable=0;points=[];" parent="6EVmLK6l6n9z2KSdd183-250" vertex="1" connectable="0">
          <mxGeometry x="-0.015" relative="1" as="geometry">
            <mxPoint x="49" y="-27" as="offset" />
          </mxGeometry>
        </mxCell>
        <mxCell id="6EVmLK6l6n9z2KSdd183-252" value="" style="endArrow=classic;html=1;rounded=0;entryX=1;entryY=0.5;entryDx=0;entryDy=0;exitX=1;exitY=0.5;exitDx=0;exitDy=0;edgeStyle=orthogonalEdgeStyle;" parent="1" source="6EVmLK6l6n9z2KSdd183-227" target="6EVmLK6l6n9z2KSdd183-189" edge="1">
          <mxGeometry width="50" height="50" relative="1" as="geometry">
            <mxPoint x="1260" y="760" as="sourcePoint" />
            <mxPoint x="1310" y="710" as="targetPoint" />
            <Array as="points">
              <mxPoint x="1400" y="649" />
              <mxPoint x="1400" y="840" />
            </Array>
          </mxGeometry>
        </mxCell>
        <mxCell id="6EVmLK6l6n9z2KSdd183-253" value="ไม่" style="edgeLabel;html=1;align=center;verticalAlign=middle;resizable=0;points=[];" parent="6EVmLK6l6n9z2KSdd183-252" vertex="1" connectable="0">
          <mxGeometry x="-0.8219" y="1" relative="1" as="geometry">
            <mxPoint as="offset" />
          </mxGeometry>
        </mxCell>
        <mxCell id="6EVmLK6l6n9z2KSdd183-254" value="" style="endArrow=classic;html=1;rounded=0;exitX=0.5;exitY=1;exitDx=0;exitDy=0;entryX=0;entryY=0.5;entryDx=0;entryDy=0;edgeStyle=orthogonalEdgeStyle;" parent="1" source="6EVmLK6l6n9z2KSdd183-246" target="6EVmLK6l6n9z2KSdd183-189" edge="1">
          <mxGeometry width="50" height="50" relative="1" as="geometry">
            <mxPoint x="1160" y="800" as="sourcePoint" />
            <mxPoint x="1290" y="770" as="targetPoint" />
          </mxGeometry>
        </mxCell>
      </root>
    </mxGraphModel>
  </diagram>
</mxfile>
